<?xml version="1.0" encoding="UTF-8" standalone="no"?>
<svg
   xml:space="preserve"
   version="1.1"
   style="image-rendering:optimizeQuality;shape-rendering:geometricPrecision;text-rendering:geometricPrecision"
   viewBox="0 0 150 150"
   x="0px"
   y="0px"
   fill-rule="evenodd"
   clip-rule="evenodd"
   id="svg14"
   sodipodi:docname="business-consultation-icon.svg"
   width="150"
   height="150"
   inkscape:version="1.2.1 (9c6d41e410, 2022-07-14)"
   xmlns:inkscape="http://www.inkscape.org/namespaces/inkscape"
   xmlns:sodipodi="http://sodipodi.sourceforge.net/DTD/sodipodi-0.dtd"
   xmlns="http://www.w3.org/2000/svg"
   xmlns:svg="http://www.w3.org/2000/svg"><sodipodi:namedview
     id="namedview16"
     pagecolor="#ffffff"
     bordercolor="#000000"
     borderopacity="0.25"
     inkscape:showpageshadow="2"
     inkscape:pageopacity="0.0"
     inkscape:pagecheckerboard="0"
     inkscape:deskcolor="#d1d1d1"
     showgrid="false"
     inkscape:zoom="3.5"
     inkscape:cx="-2.8571429"
     inkscape:cy="75.714286"
     inkscape:window-width="1366"
     inkscape:window-height="742"
     inkscape:window-x="0"
     inkscape:window-y="0"
     inkscape:window-maximized="1"
     inkscape:current-layer="svg14" /><defs
     id="defs4"><style
       type="text/css"
       id="style2">
   
    .fil0 {fill:black}
   
  </style></defs><g
     id="g8"
     transform="matrix(0.4698418,0,0,0.4698418,-3.4635806,-3.2587344)"
     style="fill:#f27c0d;fill-opacity:1"><path
       class="fil0"
       d="m 292,66 c 14,0 26,12 26,26 0,14 -12,26 -26,26 -15,0 -26,-12 -26,-26 0,-14 11,-26 26,-26 z M 104,8 h 77 c 4,0 7,3 7,7 v 48 c 0,4 -3,7 -7,7 h -36 l -30,22 10,-22 h -21 c -3,0 -7,-3 -7,-7 V 15 c 0,-4 4,-7 7,-7 z M 42,66 c -15,0 -26,12 -26,26 0,14 11,26 26,26 14,0 26,-12 26,-26 C 68,78 56,66 42,66 Z m -25,82 6,85 c 2,7 7,11 13,13 l 53,3 -1,65 c 0,14 27,16 27,-1 v -78 c 1,-7 -5,-12 -12,-13 H 74 v -75 c 0,-31 -56,-30 -57,1 z M 193,28 c 20,2 36,19 36,40 0,9 -4,18 -9,25 l 10,13 -21,-4 c -6,3 -13,5 -20,5 -19,0 -35,-14 -39,-32 h 31 c 7,0 12,-5 12,-12 z m -84,174 h 116 v 16 H 109 Z m 100,20 v 103 h -13 v -80 h -58 v 80 H 125 V 222 Z m 107,-74 -6,85 c -2,7 -6,11 -13,13 l -52,3 v 65 c 0,14 -27,16 -27,-1 v -78 c 0,-7 6,-12 13,-13 h 29 l -1,-75 c 0,-31 57,-30 57,1 z"
       id="path6"
       style="fill:#f27c0d;fill-opacity:1" /></g></svg>
