<?xml version="1.0" encoding="UTF-8" standalone="no"?>
<svg
   height="23.352228"
   viewBox="0 -960 960 934.08913"
   width="24"
   version="1.1"
   id="svg4"
   xmlns="http://www.w3.org/2000/svg"
   xmlns:svg="http://www.w3.org/2000/svg">
  <defs
     id="defs8" />
  <path
     d="M 849.87854,-25.910931 566.15385,-309.63563 674.97976,-418.46154 958.7045,-134.73684 Z m -715.1417,0 -108.82591,-108.825909 357.57085,-357.57085 -88.09716,-88.09717 -36.27531,36.27531 -66.07287,-66.07288 v 106.23482 l -36.27531,36.2753 L 0,-624.45344 36.2753,-660.72874 H 142.51012 L 77.73279,-725.50607 261.7004,-909.47368 q 25.91094,-25.91094 55.70851,-37.57085 29.79757,-11.65992 60.89069,-11.65992 31.09311,0 60.89068,11.65992 29.79757,11.65991 55.70851,37.57085 l -119.19029,119.19028 64.77733,64.77733 -36.2753,36.2753 88.09716,88.09717 116.59919,-116.59919 q -5.18218,-14.25102 -8.42105,-29.79757 -3.23887,-15.54656 -3.23887,-31.09312 0,-76.43725 52.46964,-128.90688 Q 702.18623,-960 778.62348,-960 q 19.4332,0 36.92308,3.88664 17.48988,3.88664 35.62753,11.65992 l -128.25911,128.25911 93.27935,93.27935 128.25907,-128.25911 q 9.0689,18.13765 12.3077,35.62753 3.2389,17.48988 3.2389,36.92308 0,76.43725 -52.4696,128.90688 -52.46967,52.46964 -128.90692,52.46964 -15.54656,0 -31.09312,-2.5911 -15.54655,-2.59109 -29.79757,-9.06882 z"
     id="path2"
     style="fill:#808000;stroke-width:1.29555" />
</svg>
