<?xml version="1.0" encoding="UTF-8" standalone="no"?>
<svg
   version="1.1"
   x="0px"
   y="0px"
   viewBox="0 0 150 150"
   xml:space="preserve"
   id="svg14"
   sodipodi:docname="design-icon.svg"
   width="150"
   height="150"
   inkscape:version="1.2.1 (9c6d41e410, 2022-07-14)"
   xmlns:inkscape="http://www.inkscape.org/namespaces/inkscape"
   xmlns:sodipodi="http://sodipodi.sourceforge.net/DTD/sodipodi-0.dtd"
   xmlns="http://www.w3.org/2000/svg"
   xmlns:svg="http://www.w3.org/2000/svg"><defs
     id="defs18" /><sodipodi:namedview
     id="namedview16"
     pagecolor="#ffffff"
     bordercolor="#000000"
     borderopacity="0.25"
     inkscape:showpageshadow="2"
     inkscape:pageopacity="0.0"
     inkscape:pagecheckerboard="0"
     inkscape:deskcolor="#d1d1d1"
     showgrid="false"
     inkscape:zoom="3.5"
     inkscape:cx="75.142857"
     inkscape:cy="76.285714"
     inkscape:window-width="1366"
     inkscape:window-height="742"
     inkscape:window-x="0"
     inkscape:window-y="0"
     inkscape:window-maximized="1"
     inkscape:current-layer="svg14" /><g
     id="g8"
     style="fill:#f27c0d;fill-opacity:1"
     transform="matrix(1.5684211,0,0,1.5684211,-3.421055,-3.3426339)"><path
       d="M 63,81.1 H 37 c -1,0 -1.8,0.8 -1.8,1.8 v 4.2 c 0,1 0.8,1.8 1.8,1.8 h 26 c 1,0 1.8,-0.8 1.8,-1.8 v -4.2 c 0,-1 -0.8,-1.8 -1.8,-1.8 z"
       id="path2"
       style="fill:#f27c0d;fill-opacity:1" /><path
       d="m 54.1,31.2 c -0.5,-0.9 -1.3,-1.6 -2.2,-2 v 21.5 c 2.2,0.8 3.7,2.9 3.7,5.3 0,3.1 -2.5,5.6 -5.6,5.6 -3.1,0 -5.6,-2.5 -5.6,-5.6 0,-2.4 1.6,-4.5 3.7,-5.3 V 29.3 c -0.9,0.4 -1.6,1.1 -2.2,1.9 L 32.5,54.6 c -0.9,1.5 -1.2,3.3 -0.8,5 l 3.2,15.9 c 0.2,0.8 0.9,1.5 1.8,1.5 h 26.7 c 0.9,0 1.6,-0.6 1.8,-1.5 l 3.2,-15.9 c 0.4,-1.7 0.1,-3.5 -0.8,-5 z"
       id="path4"
       style="fill:#f27c0d;fill-opacity:1" /><path
       d="m 92.6,20.8 c 2.7,0 4.9,-2.2 4.9,-4.9 v 0 C 97.5,13.2 95.3,11 92.6,11 90.5,11 88.7,12.4 88,14.3 H 55.2 c -0.1,0 -0.3,0 -0.4,0 v -3.2 h -9.7 v 3.2 c -0.1,0 -0.3,0 -0.4,0 H 12 C 11.3,12.4 9.5,11 7.4,11 4.7,11 2.5,13.2 2.5,15.9 v 0 c 0,2.7 2.2,4.9 4.9,4.9 2.1,0 3.9,-1.4 4.6,-3.3 H 32.7 C 18.1,23.7 7.5,37.4 5.7,53.8 H 2.5 v 9.7 h 9.7 V 53.8 H 9.5 c 2.2,-18.6 17,-33.4 35.6,-35.6 v 2.7 h 9.7 v -2.7 c 18.6,2.2 33.4,17 35.6,35.6 h -2.7 v 9.7 h 9.7 V 53.8 H 94.2 C 92.4,37.4 81.8,23.7 67.2,17.5 H 88 c 0.7,2 2.5,3.3 4.6,3.3 z"
       id="path6"
       style="fill:#f27c0d;fill-opacity:1" /></g></svg>
