<?xml version="1.0" encoding="UTF-8" standalone="no"?>
<svg
   viewBox="0 0 150 150"
   version="1.1"
   id="svg4"
   sodipodi:docname="desktop.svg"
   width="150"
   height="150"
   inkscape:version="1.2.1 (9c6d41e410, 2022-07-14)"
   xmlns:inkscape="http://www.inkscape.org/namespaces/inkscape"
   xmlns:sodipodi="http://sodipodi.sourceforge.net/DTD/sodipodi-0.dtd"
   xmlns="http://www.w3.org/2000/svg"
   xmlns:svg="http://www.w3.org/2000/svg">
  <defs
     id="defs8" />
  <sodipodi:namedview
     id="namedview6"
     pagecolor="#ffffff"
     bordercolor="#000000"
     borderopacity="0.25"
     inkscape:showpageshadow="2"
     inkscape:pageopacity="0.0"
     inkscape:pagecheckerboard="0"
     inkscape:deskcolor="#d1d1d1"
     showgrid="false"
     inkscape:zoom="3.5"
     inkscape:cx="57.857143"
     inkscape:cy="76.857143"
     inkscape:window-width="1366"
     inkscape:window-height="742"
     inkscape:window-x="0"
     inkscape:window-y="0"
     inkscape:window-maximized="1"
     inkscape:current-layer="svg4" />
  <!--! Font Awesome Free 6.1.1 by @fontawesome - https://fontawesome.com License - https://fontawesome.com/license/free (Icons: CC BY 4.0, Fonts: SIL OFL 1.1, Code: MIT License) Copyright 2022 Fonticons, Inc. -->
  <path
     fill="#808000"
     d="M 137.08333,8.77778 H 12.916667 C 6.0616319,8.77778 0.5,14.339412 0.5,21.194447 v 82.777773 c 0,6.85504 5.5616319,12.41667 12.416667,12.41667 h 49.666666 l -4.138889,12.41667 h -18.625 c -3.414583,0 -6.208333,2.79375 -6.208333,6.20833 0,3.41458 2.79375,6.20833 6.208333,6.20833 h 70.361116 c 3.42751,0 6.20833,-2.78081 6.20833,-6.20833 0,-3.42752 -2.78082,-6.20833 -6.20833,-6.20833 H 91.555556 l -4.138889,-12.41667 h 49.666663 c 6.85504,0 12.41667,-5.56163 12.41667,-12.41667 V 21.194447 C 149.5,14.339412 143.93837,8.77778 137.08333,8.77778 Z m -4.13889,74.5 H 17.055556 V 25.333336 H 132.94444 Z"
     id="path2"
     style="stroke-width:0.258681;fill:#f27c0d;fill-opacity:1" />
</svg>
