<?xml version="1.0" encoding="UTF-8" standalone="no"?>
<svg
   version="1.1"
   x="0px"
   y="0px"
   viewBox="0 0 150 150"
   xml:space="preserve"
   id="svg10"
   sodipodi:docname="digital-marketing-icon.svg"
   width="150"
   height="150"
   inkscape:version="1.2.1 (9c6d41e410, 2022-07-14)"
   xmlns:inkscape="http://www.inkscape.org/namespaces/inkscape"
   xmlns:sodipodi="http://sodipodi.sourceforge.net/DTD/sodipodi-0.dtd"
   xmlns="http://www.w3.org/2000/svg"
   xmlns:svg="http://www.w3.org/2000/svg"><defs
     id="defs14" /><sodipodi:namedview
     id="namedview12"
     pagecolor="#ffffff"
     bordercolor="#000000"
     borderopacity="0.25"
     inkscape:showpageshadow="2"
     inkscape:pageopacity="0.0"
     inkscape:pagecheckerboard="0"
     inkscape:deskcolor="#d1d1d1"
     showgrid="false"
     inkscape:zoom="3.5"
     inkscape:cx="65"
     inkscape:cy="76.571429"
     inkscape:window-width="1366"
     inkscape:window-height="742"
     inkscape:window-x="0"
     inkscape:window-y="0"
     inkscape:window-maximized="1"
     inkscape:current-layer="svg10" /><style
     type="text/css"
     id="style2">
	.st0{fill-rule:evenodd;clip-rule:evenodd;}
</style><path
     class="st0"
     d="m 147.8993,112.9326 c 0,2.81445 -2.30288,5.11733 -5.11733,5.11733 H 5.6173308 c -2.8144487,0 -5.11733004,-2.30288 -5.11733004,-5.11733 V 22.413311 c 0,-2.814449 2.30288134,-5.11733 5.11733004,-5.11733 H 114.39908 l -2.72008,4.412062 -7.50961,4.335907 c -0.25661,0.149 -0.50826,0.304622 -0.75328,0.465211 H 9.7115258 V 108.84006 H 138.68447 V 44.465344 l 9.21152,-0.249989 V 112.9326 Z M 88.070745,136.62032 87.004566,122.68715 H 61.394738 l -1.06618,13.93317 c -1.397291,0.17549 -2.804515,0.37747 -4.223328,0.60428 l -18.237628,2.92868 c -2.526381,0.40562 -4.107439,1.76648 -3.739906,3.22172 0.367534,1.45358 2.559493,2.5181 5.188519,2.5181 h 69.766875 c 2.62902,0 4.82098,-1.06452 5.18852,-2.5181 0.36753,-1.45358 -1.21353,-2.8161 -3.73991,-3.22172 L 92.294074,137.2246 c -1.418814,-0.22846 -2.826038,-0.42879 -4.223329,-0.60428 z M 122.64045,47.566205 118.038,50.168742 c -0.47349,0.2682 -0.95857,0.509912 -1.45027,0.72679 l 7.7447,9.754548 c 2.78134,3.504816 8.11555,-0.730101 5.33421,-4.233262 z M 106.48883,30.057022 c -4.40875,2.544593 -6.522899,7.834101 -3.86904,12.42993 2.34427,4.059429 7.9533,5.181897 12.5392,2.589293 l 6.02788,-3.408794 -8.70161,-15.072201 z m 35.55311,-5.208385 c 1.04631,-1.759859 1.13737,-4.019695 0.0397,-5.920276 -1.11916,-1.938658 -3.16708,-2.988282 -5.25143,-2.92206 L 130.2941,4.9157173 c -0.62746,-1.0661794 -2.15388,-1.0810794 -2.80286,-0.028144 l -10.73961,17.4247487 10.29261,17.828705 20.89148,-0.564546 c 1.23505,-0.05794 1.96184,-1.400602 1.33438,-2.466781 z M 74.198824,39.151003 c -7.87549,0 -15.005978,3.191916 -20.168008,8.353946 -5.162031,5.16203 -8.353946,12.292519 -8.353946,20.168008 v 0.122512 0.05463 c 0,0.02649 0,0.05463 0.0017,0.08112 0.06953,7.772845 3.248205,14.804001 8.352291,19.908086 5.16203,5.16203 12.292518,8.353946 20.168008,8.353946 7.87549,0 15.005978,-3.191916 20.168008,-8.353946 5.104094,-5.104085 8.282763,-12.135241 8.352293,-19.908086 0.002,-0.02649 0.002,-0.05463 0.002,-0.08112 v -0.05463 -0.122512 c 0,-7.875489 -3.191919,-15.005978 -8.353953,-20.168008 C 89.206458,42.344574 82.074314,39.151003 74.198824,39.151003 Z M 53.36197,79.359542 c 1.723436,-1.013202 3.690239,-1.898925 5.845776,-2.627371 -0.36919,-2.087659 -0.612557,-4.28624 -0.71189,-6.562632 h -8.05429 c 0.344356,3.311116 1.36418,6.420254 2.920404,9.190003 z m 10.330682,-3.855795 c 2.574393,-0.554612 5.327586,-0.907246 8.190046,-1.021479 v -4.312729 h -8.746313 c 0.08609,1.850914 0.274823,3.635605 0.556267,5.334208 z m 12.823953,-0.996646 c 2.867427,0.144033 5.613998,0.526467 8.170179,1.109224 0.291379,-1.731714 0.486734,-3.554483 0.576134,-5.445131 h -8.746313 z m 12.643497,2.397248 c 2.12077,0.753279 4.051151,1.660525 5.738164,2.696904 1.634036,-2.829349 2.703525,-6.024576 3.057815,-9.431714 h -8.054289 c -0.100989,2.339303 -0.354289,4.595829 -0.74169,6.73481 z m 3.044571,6.464954 c -1.21849,-0.720167 -2.59757,-1.369146 -4.112406,-1.933692 -0.63739,2.158848 -1.420469,4.138896 -2.324403,5.890476 -0.319523,0.619179 -0.655601,1.211869 -1.00658,1.776414 2.35586,-1.162202 4.491529,-2.701871 6.329199,-4.53954 0.384089,-0.38409 0.75659,-0.783079 1.11419,-1.193658 z m -8.54599,-3.243238 C 81.433613,79.62112 79.034709,79.285042 76.516605,79.14763 v 11.85214 c 1.91217,-0.930423 3.685272,-2.971726 5.140508,-5.791142 0.776457,-1.503246 1.450269,-3.210127 2.00157,-5.082563 z m -11.77764,-1.004924 c -2.528038,0.107612 -4.93853,0.41389 -7.175189,0.889035 0.557923,1.917136 1.243324,3.66375 2.034681,5.198452 1.455235,2.819416 3.228338,4.860719 5.140508,5.791142 z m -11.626985,2.134015 c -1.554569,0.549645 -2.976693,1.190346 -4.239884,1.907203 0.41389,0.485078 0.844335,0.951945 1.294647,1.402257 1.837669,1.83767 3.973339,3.377339 6.329198,4.53954 -0.350978,-0.564545 -0.687057,-1.157235 -1.006579,-1.776413 -0.930424,-1.801248 -1.731714,-3.844206 -2.377382,-6.072587 z M 94.827077,55.620495 c -1.685358,1.057901 -3.617394,1.985014 -5.741475,2.754848 0.430445,2.268115 0.710234,4.668674 0.817846,7.158633 h 8.089053 c -0.31952,-3.592561 -1.43371,-6.956655 -3.165424,-9.913481 z m -10.203204,4.06605 c -2.533004,0.589379 -5.258052,0.981746 -8.107268,1.139024 v 4.708407 h 8.746313 c -0.09437,-2.034681 -0.3129,-3.993206 -0.639045,-5.847431 z m -12.74283,1.187035 c -2.849216,-0.09768 -5.587509,-0.430445 -8.145346,-0.960223 -0.304623,1.786347 -0.509912,3.668716 -0.600968,5.618964 h 8.746314 z M 59.249135,58.724666 c -2.193615,-0.720168 -4.19684,-1.60258 -5.956698,-2.615782 -1.572781,2.837627 -2.584326,6.027887 -2.885638,9.423437 h 8.089057 c 0.102644,-2.360826 0.360911,-4.643841 0.753279,-6.807655 z m -3.319394,-6.440121 c 1.306235,0.723479 2.778026,1.367491 4.385573,1.917136 0.63739,-2.170436 1.422124,-4.163728 2.327715,-5.928553 0.3874,-0.754935 0.797979,-1.470136 1.230079,-2.143948 -2.44857,1.175446 -4.665362,2.756504 -6.564287,4.655429 -0.480112,0.478457 -0.940357,0.980091 -1.37908,1.499936 z m 8.845646,3.11576 c 2.226726,0.453623 4.612385,0.74169 7.105656,0.834402 V 44.533222 c -1.905548,0.940357 -3.673684,3.001527 -5.127264,5.837498 -0.764868,1.491658 -1.430402,3.181982 -1.978392,5.029585 z m 11.741218,0.783079 c 2.480026,-0.150656 4.844163,-0.495012 7.039433,-1.003268 -0.534745,-1.761514 -1.177102,-3.375683 -1.910514,-4.807741 -1.45358,-2.835971 -3.221716,-4.895485 -5.127263,-5.837497 v 11.648506 z m 11.461429,-2.332681 c 1.529735,-0.57779 2.917093,-1.241669 4.135584,-1.978392 -0.329456,-0.374156 -0.670501,-0.736723 -1.023135,-1.089357 -1.898925,-1.898925 -4.115717,-3.478328 -6.564288,-4.653774 0.432101,0.673812 0.842679,1.389013 1.23008,2.143948 0.855923,1.668802 1.604236,3.542894 2.221759,5.577575 z"
     id="path4"
     style="stroke-width:1.65556;fill:#F27C0D;fill-opacity:1" /></svg>
