<?xml version="1.0" encoding="UTF-8" standalone="no"?>
<!-- Uploaded to: SVG Repo, www.svgrepo.com, Generator: SVG Repo Mixer Tools -->

<svg
   width="600"
   height="600.0022"
   viewBox="0 0 12 12.000044"
   fill="none"
   version="1.1"
   id="svg4"
   xmlns="http://www.w3.org/2000/svg"
   xmlns:svg="http://www.w3.org/2000/svg">
  <defs
     id="defs8" />
  <path
     fill="#0a66c2"
     d="M 10.225,10.225015 H 8.447 V 7.4400148 c 0,-0.664 -0.012,-1.519 -0.925,-1.519 -0.926,0 -1.068,0.724 -1.068,1.47 V 10.225015 H 4.676 V 4.4980148 h 1.707 v 0.783 h 0.024 c 0.348,-0.594 0.996,-0.95 1.684,-0.925 1.802,0 2.135,1.185 2.135,2.728 L 10.225,10.224015 Z M 2.67,3.7150148 a 1.037,1.037 0 0 1 -1.032,-1.031 c 0,-0.566 0.466,-1.032 1.032,-1.032 0.566,0 1.031,0.466 1.032,1.032 0,0.566 -0.466,1.032 -1.032,1.032 z M 3.559,10.225015 H 1.779 V 4.4980148 h 1.78 z M 11.11,1.4781952e-5 H 0.885 A 0.88,0.88 0 0 0 0,0.86601478 V 11.134015 a 0.88,0.88 0 0 0 0.885,0.866 H 11.111 A 0.882,0.882 0 0 0 12,11.134015 V 0.86501478 a 0.88,0.88 0 0 0 -0.889,-0.864 z"
     id="path2" />
</svg>
