<?xml version="1.0" encoding="UTF-8" standalone="no"?>
<svg
   width="499.99963"
   height="199.98871"
   viewBox="0 0 499.99963 199.98871"
   version="1.1"
   xml:space="preserve"
   style="clip-rule:evenodd;fill-rule:evenodd;stroke-linecap:round;stroke-miterlimit:1.5"
   id="svg16"
   sodipodi:docname="logo-placeholder.svg"
   xmlns:inkscape="http://www.inkscape.org/namespaces/inkscape"
   xmlns:sodipodi="http://sodipodi.sourceforge.net/DTD/sodipodi-0.dtd"
   xmlns="http://www.w3.org/2000/svg"
   xmlns:svg="http://www.w3.org/2000/svg"><defs
     id="defs20" /><sodipodi:namedview
     id="namedview18"
     pagecolor="#ffffff"
     bordercolor="#000000"
     borderopacity="0.25"
     inkscape:showpageshadow="2"
     inkscape:pageopacity="0.0"
     inkscape:pagecheckerboard="0"
     inkscape:deskcolor="#d1d1d1"
     showgrid="false" /><g
     id="g14"
     transform="matrix(0.64993846,0,0,0.66118528,-9.9759048,-98.361228)"
     inkscape:export-filename="g14.svg"
     inkscape:export-xdpi="96"
     inkscape:export-ydpi="96"><path
       d="m 370.54,368.18 c -5.734,0 -10.269,-1.752 -13.603,-5.256 -3.334,-3.504 -5.001,-8.269 -5.001,-14.296 V 239.932 c 1.467,-0.281 3.801,-0.666 7.002,-1.157 3.2,-0.49 6.268,-0.736 9.202,-0.736 3.067,0 5.768,0.246 8.102,0.736 2.334,0.491 4.301,1.367 5.901,2.628 1.601,1.262 2.801,3.014 3.601,5.256 0.8,2.243 1.2,5.186 1.2,8.831 v 83.046 h 45.812 c 0.933,1.542 1.8,3.609 2.6,6.202 0.8,2.593 1.2,5.291 1.2,8.095 0,5.606 -1.133,9.566 -3.4,11.878 -2.268,2.313 -5.268,3.469 -9.003,3.469 z"
       style="fill-rule:nonzero"
       id="path2" /><path
       id="circle4"
       style="fill:none;stroke:#000000;stroke-width:33px"
       d="m 537.10701,316.655 a 38.450001,38.450001 0 0 1 -38.45,38.45 38.450001,38.450001 0 0 1 -38.45,-38.45 38.450001,38.450001 0 0 1 38.45,-38.45 38.450001,38.450001 0 0 1 38.45,38.45 z" /><path
       id="circle6"
       style="fill:none;stroke:#000000;stroke-width:33px"
       d="m 768.15203,316.655 a 38.450001,38.450001 0 0 1 -38.45,38.45 38.450001,38.450001 0 0 1 -38.45,-38.45 38.450001,38.450001 0 0 1 38.45,-38.45 38.450001,38.450001 0 0 1 38.45,38.45 z" /><path
       d="m 614.6,262.217 c 7.602,0 14.503,1.017 20.705,3.049 6.201,2.032 11.436,4.66 15.704,7.884 2.667,1.962 4.767,4.135 6.301,6.518 1.534,2.382 2.301,5.466 2.301,9.25 v 73.586 c 0,7.428 -1.334,13.841 -4.001,19.237 -2.668,5.396 -6.302,9.882 -10.903,13.456 -4.601,3.574 -10.002,6.202 -16.204,7.884 -6.201,1.682 -12.836,2.523 -19.905,2.523 -12.136,0 -21.672,-1.717 -28.607,-5.151 -6.935,-3.434 -10.402,-9.006 -10.402,-16.714 0,-3.224 0.633,-6.063 1.9,-8.515 1.267,-2.453 2.701,-4.31 4.301,-5.572 3.868,2.243 8.236,4.135 13.103,5.677 4.868,1.542 9.903,2.312 15.104,2.312 7.202,0 12.937,-1.261 17.204,-3.784 4.268,-2.523 6.402,-6.588 6.402,-12.194 v -3.364 c -5.468,2.523 -12.136,3.784 -20.005,3.784 -6.001,0 -11.703,-0.946 -17.104,-2.838 -5.401,-1.892 -10.136,-4.836 -14.204,-8.83 -4.067,-3.995 -7.335,-9.146 -9.802,-15.453 -2.467,-6.307 -3.701,-13.806 -3.701,-22.496 0,-8.55 1.3,-15.979 3.901,-22.286 2.601,-6.307 6.202,-11.529 10.803,-15.663 4.601,-4.135 10.069,-7.219 16.404,-9.251 6.335,-2.032 13.236,-3.049 20.705,-3.049 z"
       style="fill-rule:nonzero"
       id="path8" /><path
       d="m 131.372,233.984 c 2.498,-1.545 6.281,-3.012 11.351,-4.401 5.069,-1.39 10.175,-2.085 15.318,-2.085 7.346,0 13.848,1.119 19.505,3.359 5.657,2.239 9.294,5.752 10.91,10.539 2.645,8.03 5.51,17.373 8.596,28.028 3.086,10.655 6.171,21.658 9.257,33.008 3.086,11.35 6.098,22.546 9.036,33.587 2.939,11.042 8.89,22.164 21.615,25.42 0.144,0.037 -18.309,7.782 -21.835,9.094 -3.526,1.313 -7.714,1.969 -12.563,1.969 -3.526,0 -6.502,-0.309 -8.926,-0.926 -2.425,-0.618 -4.408,-1.545 -5.951,-2.78 -1.543,-1.235 -2.792,-2.857 -3.747,-4.864 -0.955,-2.008 -1.8,-4.324 -2.535,-6.949 L 177.436,341 h -39.893 c -1.175,4.632 -2.351,9.419 -3.526,14.361 -1.176,4.942 -2.351,9.729 -3.527,14.362 -2.057,0.772 -4.224,1.428 -6.502,1.968 -2.277,0.541 -5.032,0.811 -8.265,0.811 -7.494,0 -13.04,-1.351 -16.64,-4.053 -3.6,-2.703 -5.4,-6.448 -5.4,-11.235 0,-2.162 0.294,-4.324 0.881,-6.486 0.588,-2.162 1.249,-4.71 1.984,-7.644 1.029,-4.169 2.461,-9.342 4.298,-15.519 1.837,-6.177 3.857,-12.856 6.061,-20.037 2.204,-7.181 4.555,-14.554 7.053,-22.121 2.498,-7.567 4.849,-14.709 7.053,-21.426 2.204,-6.718 4.224,-12.702 6.061,-17.952 1.837,-5.251 3.269,-9.266 4.298,-12.045 z m 26.448,29.881 c -2.057,6.486 -4.371,13.705 -6.943,21.658 -2.571,7.953 -4.885,16.021 -6.942,24.206 h 27.33 c -2.057,-8.339 -4.151,-16.485 -6.282,-24.438 -2.13,-7.953 -4.077,-15.095 -5.84,-21.426 z"
       style="fill-rule:nonzero"
       id="path10" /><path
       id="ellipse12"
       style="fill:none;stroke:#000000;stroke-width:33px"
       d="M 288.25101,300 A 128.201,134.735 0 0 1 160.05,434.735 128.201,134.735 0 0 1 31.848999,300 128.201,134.735 0 0 1 160.05,165.265 128.201,134.735 0 0 1 288.25101,300 Z" /></g></svg>
